<svg xmlns="http://www.w3.org/2000/svg" width="17.072" height="14.849" viewBox="0 0 17.072 14.849">
  <g id="password_eye_icon_2" transform="translate(-650.464 -438)">
    <path id="빼기_2" data-name="빼기 2" d="M-2784-2386.091a8.7,8.7,0,0,1-1.616-.151l1.667-1.667a3.619,3.619,0,0,0,2.531-1.054,3.624,3.624,0,0,0,1.054-2.531l2.714-2.713a8.445,8.445,0,0,1,1.651,2.661,8.485,8.485,0,0,1-3.1,3.927A8.555,8.555,0,0,1-2784-2386.091Zm-2.738-.444h0a8.6,8.6,0,0,1-2.363-1.222l1.953-1.953a3.577,3.577,0,0,0,1.972,1.614l-1.561,1.561Zm-3.137-1.863h0a8.421,8.421,0,0,1-2.125-3.148,8.485,8.485,0,0,1,3.1-3.927A8.567,8.567,0,0,1-2784-2397a8.623,8.623,0,0,1,2.39.337l-1.571,1.572a3.728,3.728,0,0,0-.818-.091,3.6,3.6,0,0,0-3.637,3.636,3.721,3.721,0,0,0,.091.819l-2.328,2.329Zm5.875-.966a2.132,2.132,0,0,1-2.06-1.435l2.808-2.807a2.131,2.131,0,0,1,1.434,2.06c0,.031,0,.063,0,.094l-2.087,2.087H-2784Zm-2.1-2.812v0a2.1,2.1,0,0,1,1.465-1.463l-1.464,1.464Zm5.544-.544v0a3.577,3.577,0,0,0-1.612-1.972l1.595-1.595a8.557,8.557,0,0,1,2.2,1.384l-2.183,2.183Z" transform="translate(3443 2837)" fill="#1b3031" stroke="rgba(0,0,0,0)" stroke-width="1"/>
    <rect id="사각형_52" data-name="사각형 52" width="3" height="18" transform="translate(664.728 438) rotate(45)" fill="#1b3031"/>
  </g>
</svg>
