<svg id="net_icon" xmlns="http://www.w3.org/2000/svg" width="16" height="16" viewBox="0 0 16 16">
  <path id="패스_40" data-name="패스 40" d="M3.89,5.316a1.7,1.7,0,0,1,.5.075A13.762,13.762,0,0,1,6.376,3.566a1.673,1.673,0,0,1,.041-.935A12.479,12.479,0,0,0,3.8,1.191,8.037,8.037,0,0,0,1.554,3.263a12.583,12.583,0,0,0,1.6,2.223A1.691,1.691,0,0,1,3.89,5.316Zm-1.7,1.7a1.7,1.7,0,0,1,.139-.673A13.715,13.715,0,0,1,.852,4.409a8,8,0,0,0,.274,7.683A13.558,13.558,0,0,1,2.535,8.046,1.689,1.689,0,0,1,2.188,7.018Zm5.843-5.55a1.694,1.694,0,0,1,1.161.46,13.559,13.559,0,0,1,2.8-.862,8,8,0,0,0-6.8-.555,13.712,13.712,0,0,1,1.98,1.2A1.69,1.69,0,0,1,8.031,1.468Zm2.545,8.017a1.7,1.7,0,0,1,.442-.571A12.453,12.453,0,0,0,8.695,4.738a1.7,1.7,0,0,1-1.653-.184A12.522,12.522,0,0,0,5.335,6.122a1.7,1.7,0,0,1,.179,1.406A12.376,12.376,0,0,0,10.576,9.485Zm2.208,2.3q.035.483.036.975a13.8,13.8,0,0,1-.106,1.705,8.015,8.015,0,0,0,2.91-4.034,13.594,13.594,0,0,1-1.9.318A1.707,1.707,0,0,1,12.784,11.782Zm-2.607-1.154a13.573,13.573,0,0,1-5.4-2.16,1.693,1.693,0,0,1-.888.252,1.711,1.711,0,0,1-.349-.036,12.374,12.374,0,0,0-1.391,4.77,8.014,8.014,0,0,0,2.735,1.916A13.615,13.615,0,0,1,10.177,10.629ZM13.37,2.071A12.365,12.365,0,0,0,9.724,3a1.579,1.579,0,0,1,.009.17,1.7,1.7,0,0,1-.175.748,13.643,13.643,0,0,1,2.582,4.6,1.7,1.7,0,0,1,1.538,1.038,12.36,12.36,0,0,0,2.242-.438A8.082,8.082,0,0,0,16,8,7.979,7.979,0,0,0,13.37,2.071Zm-2.337,9.468a12.428,12.428,0,0,0-4.977,4.223,8.007,8.007,0,0,0,5.319-.508,12.444,12.444,0,0,0,.252-2.495c0-.309-.014-.614-.037-.917A1.7,1.7,0,0,1,11.033,11.538Z" transform="translate(0)" fill="#1b3031"/>
</svg>
